<mxfile host="65bd71144e" linkTarget="_top" scale="1" border="0">
    <diagram id="97UH1Q8U8gRl1qH2BKJp" name="j2ssh Structure">
        <mxGraphModel dx="1422" dy="850" grid="0" gridSize="7" guides="1" tooltips="1" connect="1" arrows="1" fold="1" page="1" pageScale="1" pageWidth="1600" pageHeight="900" background="#ffffff" math="1" shadow="1">
            <root>
                <mxCell id="0"/>
                <mxCell id="1" parent="0"/>
                <mxCell id="14" value="서버" style="rounded=0;whiteSpace=wrap;html=1;shadow=0;fontFamily=Helvetica;fontSize=12;fontColor=#000000;strokeColor=#000000;strokeWidth=2;fillColor=none;" parent="1" vertex="1">
                    <mxGeometry x="933" y="56" width="120" height="60" as="geometry"/>
                </mxCell>
                <mxCell id="31" style="edgeStyle=orthogonalEdgeStyle;shape=connector;rounded=1;html=1;exitX=0;exitY=0.5;exitDx=0;exitDy=0;entryX=1;entryY=0.5;entryDx=0;entryDy=0;labelBackgroundColor=default;fontFamily=Helvetica;fontSize=11;fontColor=#000000;endArrow=classic;strokeColor=#000000;" parent="1" source="15" target="16" edge="1">
                    <mxGeometry relative="1" as="geometry">
                        <Array as="points">
                            <mxPoint x="404" y="180"/>
                            <mxPoint x="404" y="86"/>
                        </Array>
                    </mxGeometry>
                </mxCell>
                <mxCell id="48" style="edgeStyle=orthogonalEdgeStyle;shape=connector;rounded=1;html=1;exitX=1;exitY=0.75;exitDx=0;exitDy=0;entryX=0;entryY=0.75;entryDx=0;entryDy=0;labelBackgroundColor=default;fontFamily=Helvetica;fontSize=11;fontColor=#000000;endArrow=classic;strokeColor=#000000;" parent="1" source="15" target="14" edge="1">
                    <mxGeometry relative="1" as="geometry">
                        <Array as="points">
                            <mxPoint x="775" y="195"/>
                            <mxPoint x="775" y="101"/>
                        </Array>
                    </mxGeometry>
                </mxCell>
                <mxCell id="15" value="SAC" style="rounded=0;whiteSpace=wrap;html=1;shadow=0;fontFamily=Helvetica;fontSize=12;fontColor=#000000;strokeColor=#000000;strokeWidth=2;fillColor=none;" parent="1" vertex="1">
                    <mxGeometry x="501" y="150" width="120" height="60" as="geometry"/>
                </mxCell>
                <mxCell id="47" value="" style="edgeStyle=orthogonalEdgeStyle;shape=connector;rounded=1;html=1;labelBackgroundColor=default;fontFamily=Helvetica;fontSize=11;fontColor=#000000;endArrow=classic;strokeColor=#000000;entryX=0;entryY=0.75;entryDx=0;entryDy=0;exitX=1;exitY=0.75;exitDx=0;exitDy=0;" parent="1" source="16" target="15" edge="1">
                    <mxGeometry relative="1" as="geometry">
                        <mxPoint x="161" y="196" as="targetPoint"/>
                    </mxGeometry>
                </mxCell>
                <mxCell id="16" value="클라이언트" style="rounded=0;whiteSpace=wrap;html=1;shadow=0;fontFamily=Helvetica;fontSize=12;fontColor=#000000;strokeColor=#000000;strokeWidth=2;fillColor=none;" parent="1" vertex="1">
                    <mxGeometry x="101" y="56" width="120" height="60" as="geometry"/>
                </mxCell>
                <mxCell id="18" value="" style="endArrow=classic;html=1;exitX=0;exitY=0.5;exitDx=0;exitDy=0;entryX=1;entryY=0.5;entryDx=0;entryDy=0;strokeColor=#000000;edgeStyle=orthogonalEdgeStyle;" parent="1" source="14" target="15" edge="1">
                    <mxGeometry width="50" height="50" relative="1" as="geometry">
                        <mxPoint x="565" y="395" as="sourcePoint"/>
                        <mxPoint x="615" y="345" as="targetPoint"/>
                        <Array as="points">
                            <mxPoint x="760" y="86"/>
                            <mxPoint x="760" y="184"/>
                            <mxPoint x="621" y="184"/>
                        </Array>
                    </mxGeometry>
                </mxCell>
                <mxCell id="23" value="ConnectFactory" style="swimlane;fontStyle=1;align=center;verticalAlign=middle;childLayout=stackLayout;horizontal=1;startSize=29;horizontalStack=0;resizeParent=1;resizeParentMax=0;resizeLast=0;collapsible=0;marginBottom=0;fontFamily=Helvetica;fontSize=11;fontColor=#000000;fillColor=none;gradientColor=none;strokeColor=#000000;labelBackgroundColor=none;labelBorderColor=none;whiteSpace=wrap;spacing=2;" parent="1" vertex="1">
                    <mxGeometry x="224" y="385" width="140" height="110" as="geometry"/>
                </mxCell>
                <mxCell id="26" value="SessionID를 토대로 모든 곳에서 참조하여 사용하는 객체" style="text;strokeColor=#000000;fillColor=none;align=left;verticalAlign=top;spacingLeft=4;spacingRight=4;overflow=hidden;rotatable=0;points=[[0,0.5],[1,0.5]];portConstraint=eastwest;fontFamily=Helvetica;fontSize=11;fontColor=#000000;gradientColor=none;labelBackgroundColor=none;labelBorderColor=none;whiteSpace=wrap;spacing=2;" parent="23" vertex="1">
                    <mxGeometry y="29" width="140" height="81" as="geometry"/>
                </mxCell>
                <mxCell id="32" value="NAuthProvider" style="swimlane;fontStyle=1;align=center;verticalAlign=middle;childLayout=stackLayout;horizontal=1;startSize=29;horizontalStack=0;resizeParent=1;resizeParentMax=0;resizeLast=0;collapsible=0;marginBottom=0;fontFamily=Helvetica;fontSize=11;fontColor=#000000;fillColor=none;gradientColor=none;strokeColor=#000000;labelBackgroundColor=none;labelBorderColor=none;whiteSpace=wrap;spacing=2;" parent="1" vertex="1">
                    <mxGeometry x="35" y="385" width="140" height="110" as="geometry"/>
                </mxCell>
                <mxCell id="33" value="DB에 매핑된 정보가 있는지 체크하고 전반적인 정보 객체들 매핑 시작하는 엔트리" style="text;strokeColor=#000000;fillColor=none;align=left;verticalAlign=top;spacingLeft=4;spacingRight=4;overflow=hidden;rotatable=0;points=[[0,0.5],[1,0.5]];portConstraint=eastwest;fontFamily=Helvetica;fontSize=11;fontColor=#000000;gradientColor=none;labelBackgroundColor=none;labelBorderColor=none;whiteSpace=wrap;fontStyle=0;spacing=2;" parent="32" vertex="1">
                    <mxGeometry y="29" width="140" height="81" as="geometry"/>
                </mxCell>
                <mxCell id="34" value="SSHConnectInfo" style="swimlane;fontStyle=1;align=center;verticalAlign=middle;childLayout=stackLayout;horizontal=1;startSize=29;horizontalStack=0;resizeParent=1;resizeParentMax=0;resizeLast=0;collapsible=0;marginBottom=0;fontFamily=Helvetica;fontSize=11;fontColor=#000000;fillColor=none;gradientColor=none;strokeColor=#000000;labelBackgroundColor=none;labelBorderColor=none;whiteSpace=wrap;spacing=2;" parent="1" vertex="1">
                    <mxGeometry x="386" y="385" width="140" height="110" as="geometry"/>
                </mxCell>
                <mxCell id="35" value="SSH프로토콜 한정해서&#10;ConnectInfo 확장해서 쓰는 정보 객체&#10;&#10;SAC_AUTH DB테이블" style="text;strokeColor=#000000;fillColor=none;align=left;verticalAlign=top;spacingLeft=4;spacingRight=4;overflow=hidden;rotatable=0;points=[[0,0.5],[1,0.5]];portConstraint=eastwest;fontFamily=Helvetica;fontSize=11;fontColor=#000000;gradientColor=none;labelBackgroundColor=none;labelBorderColor=none;whiteSpace=wrap;fontStyle=0;spacing=2;" parent="34" vertex="1">
                    <mxGeometry y="29" width="140" height="81" as="geometry"/>
                </mxCell>
                <mxCell id="36" value="AccessCtlManager" style="swimlane;fontStyle=1;align=center;verticalAlign=middle;childLayout=stackLayout;horizontal=1;startSize=29;horizontalStack=0;resizeParent=1;resizeParentMax=0;resizeLast=0;collapsible=0;marginBottom=0;fontFamily=Helvetica;fontSize=11;fontColor=#000000;fillColor=none;gradientColor=none;strokeColor=#000000;labelBackgroundColor=none;labelBorderColor=none;whiteSpace=wrap;spacing=2;" parent="1" vertex="1">
                    <mxGeometry x="810" y="628" width="140" height="110" as="geometry"/>
                </mxCell>
                <mxCell id="37" value="접근 제한 정책에 필요한 function 모음" style="text;strokeColor=#000000;fillColor=none;align=left;verticalAlign=top;spacingLeft=4;spacingRight=4;overflow=hidden;rotatable=0;points=[[0,0.5],[1,0.5]];portConstraint=eastwest;fontFamily=Helvetica;fontSize=11;fontColor=#000000;gradientColor=none;labelBackgroundColor=none;labelBorderColor=none;whiteSpace=wrap;fontStyle=0;spacing=2;" parent="36" vertex="1">
                    <mxGeometry y="29" width="140" height="81" as="geometry"/>
                </mxCell>
                <mxCell id="38" value="NProcess" style="swimlane;fontStyle=1;align=center;verticalAlign=middle;childLayout=stackLayout;horizontal=1;startSize=29;horizontalStack=0;resizeParent=1;resizeParentMax=0;resizeLast=0;collapsible=0;marginBottom=0;fontFamily=Helvetica;fontSize=11;fontColor=#000000;fillColor=none;gradientColor=none;strokeColor=#000000;labelBackgroundColor=none;labelBorderColor=none;whiteSpace=wrap;spacing=2;" parent="1" vertex="1">
                    <mxGeometry x="742" y="362" width="140" height="110" as="geometry"/>
                </mxCell>
                <mxCell id="39" value="InterShell 시작/종료 관리" style="text;strokeColor=#000000;fillColor=none;align=left;verticalAlign=top;spacingLeft=4;spacingRight=4;overflow=hidden;rotatable=0;points=[[0,0.5],[1,0.5]];portConstraint=eastwest;fontFamily=Helvetica;fontSize=11;fontColor=#000000;gradientColor=none;labelBackgroundColor=none;labelBorderColor=none;whiteSpace=wrap;fontStyle=0;spacing=2;" parent="38" vertex="1">
                    <mxGeometry y="29" width="140" height="81" as="geometry"/>
                </mxCell>
                <mxCell id="40" value="InterShell" style="swimlane;fontStyle=1;align=center;verticalAlign=middle;childLayout=stackLayout;horizontal=1;startSize=29;horizontalStack=0;resizeParent=1;resizeParentMax=0;resizeLast=0;collapsible=0;marginBottom=0;fontFamily=Helvetica;fontSize=11;fontColor=#000000;fillColor=none;gradientColor=none;strokeColor=#000000;labelBackgroundColor=none;labelBorderColor=none;whiteSpace=wrap;spacing=2;" parent="1" vertex="1">
                    <mxGeometry x="742" y="484" width="140" height="133" as="geometry"/>
                </mxCell>
                <mxCell id="41" value="사용자 I/O의 엔트리 지점으로 제한 정책 분기를 위한 객체&#10;&#10;모든 객체에 접근 가능하도록 참조하고 있는 객체들이 많이 매핑되어 있음." style="text;strokeColor=#000000;fillColor=none;align=left;verticalAlign=top;spacingLeft=4;spacingRight=4;overflow=hidden;rotatable=0;points=[[0,0.5],[1,0.5]];portConstraint=eastwest;fontFamily=Helvetica;fontSize=11;fontColor=#000000;gradientColor=none;labelBackgroundColor=none;labelBorderColor=none;whiteSpace=wrap;fontStyle=0;spacing=2;" parent="40" vertex="1">
                    <mxGeometry y="29" width="140" height="104" as="geometry"/>
                </mxCell>
                <mxCell id="42" value="SSHClientMgr" style="swimlane;fontStyle=1;align=center;verticalAlign=middle;childLayout=stackLayout;horizontal=1;startSize=29;horizontalStack=0;resizeParent=1;resizeParentMax=0;resizeLast=0;collapsible=0;marginBottom=0;fontFamily=Helvetica;fontSize=11;fontColor=#000000;fillColor=none;gradientColor=none;strokeColor=#000000;labelBackgroundColor=none;labelBorderColor=none;whiteSpace=wrap;spacing=2;" parent="1" vertex="1">
                    <mxGeometry x="658" y="628" width="140" height="110" as="geometry"/>
                </mxCell>
                <mxCell id="43" value="sshClinet의 세션에 적용할 function들의 모음" style="text;strokeColor=#000000;fillColor=none;align=left;verticalAlign=top;spacingLeft=4;spacingRight=4;overflow=hidden;rotatable=0;points=[[0,0.5],[1,0.5]];portConstraint=eastwest;fontFamily=Helvetica;fontSize=11;fontColor=#000000;gradientColor=none;labelBackgroundColor=none;labelBorderColor=none;whiteSpace=wrap;fontStyle=0;spacing=2;" parent="42" vertex="1">
                    <mxGeometry y="29" width="140" height="81" as="geometry"/>
                </mxCell>
                <mxCell id="aKyI3r20wtixxWsC-phg-48" style="edgeStyle=orthogonalEdgeStyle;shape=connector;rounded=1;html=1;exitX=1;exitY=0.5;exitDx=0;exitDy=0;labelBackgroundColor=default;fontFamily=Helvetica;fontSize=11;fontColor=#000000;endArrow=classic;strokeColor=#000000;" parent="1" source="33" target="26" edge="1">
                    <mxGeometry relative="1" as="geometry"/>
                </mxCell>
                <mxCell id="aKyI3r20wtixxWsC-phg-49" style="edgeStyle=orthogonalEdgeStyle;shape=connector;rounded=1;html=1;exitX=1;exitY=0.5;exitDx=0;exitDy=0;entryX=0;entryY=0.5;entryDx=0;entryDy=0;labelBackgroundColor=default;fontFamily=Helvetica;fontSize=11;fontColor=#000000;endArrow=classic;strokeColor=#000000;" parent="1" source="26" target="35" edge="1">
                    <mxGeometry relative="1" as="geometry">
                        <mxPoint x="409.02" y="497.529" as="targetPoint"/>
                    </mxGeometry>
                </mxCell>
            </root>
        </mxGraphModel>
    </diagram>
    <diagram name="SSHD Structure" id="5Btqrcy8nwT3STlkHEey">
        <mxGraphModel dx="1422" dy="850" grid="0" gridSize="7" guides="1" tooltips="1" connect="0" arrows="1" fold="1" page="1" pageScale="1" pageWidth="1654" pageHeight="1169" background="#FFFFFF" math="1" shadow="1">
            <root>
                <mxCell id="zWn4Wl6nGkiOWj4hIkpI-0"/>
                <mxCell id="zWn4Wl6nGkiOWj4hIkpI-1" parent="zWn4Wl6nGkiOWj4hIkpI-0"/>
                <mxCell id="uM59Oh4AlOaBbhyoS76m-6" style="edgeStyle=none;html=1;exitX=1;exitY=0.25;exitDx=0;exitDy=0;entryX=0.007;entryY=0.065;entryDx=0;entryDy=0;entryPerimeter=0;fontColor=#000000;startArrow=none;startFill=0;strokeColor=#000000;" parent="zWn4Wl6nGkiOWj4hIkpI-1" source="7X2a1pH_mlBBPV4h_tW4-0" target="7X2a1pH_mlBBPV4h_tW4-3" edge="1">
                    <mxGeometry relative="1" as="geometry"/>
                </mxCell>
                <mxCell id="7X2a1pH_mlBBPV4h_tW4-0" value="ConnectionSshSessionFactory" style="swimlane;fontStyle=1;align=center;verticalAlign=middle;childLayout=stackLayout;horizontal=1;startSize=29;horizontalStack=0;resizeParent=1;resizeParentMax=0;resizeLast=0;collapsible=0;marginBottom=0;fontFamily=Helvetica;fontSize=11;fontColor=#000000;fillColor=none;gradientColor=none;strokeColor=#000000;labelBackgroundColor=none;labelBorderColor=none;whiteSpace=wrap;spacing=2;" parent="zWn4Wl6nGkiOWj4hIkpI-1" vertex="1">
                    <mxGeometry x="619" y="153" width="140" height="110" as="geometry"/>
                </mxCell>
                <mxCell id="7X2a1pH_mlBBPV4h_tW4-1" value="SessionID를 토대로 모든 곳에서 참조하여 사용하는 객체" style="text;strokeColor=#000000;fillColor=none;align=left;verticalAlign=top;spacingLeft=4;spacingRight=4;overflow=hidden;rotatable=0;points=[[0,0.5],[1,0.5]];portConstraint=eastwest;fontFamily=Helvetica;fontSize=11;fontColor=#000000;gradientColor=none;labelBackgroundColor=none;labelBorderColor=none;whiteSpace=wrap;spacing=2;" parent="7X2a1pH_mlBBPV4h_tW4-0" vertex="1">
                    <mxGeometry y="29" width="140" height="81" as="geometry"/>
                </mxCell>
                <mxCell id="7X2a1pH_mlBBPV4h_tW4-2" value="Connection{Protocol}Session" style="swimlane;fontStyle=1;align=center;verticalAlign=middle;childLayout=stackLayout;horizontal=1;startSize=25;horizontalStack=0;resizeParent=1;resizeParentMax=0;resizeLast=0;collapsible=0;marginBottom=0;fontFamily=Helvetica;fontSize=11;fontColor=#000000;fillColor=none;gradientColor=none;strokeColor=#000000;labelBackgroundColor=none;labelBorderColor=none;whiteSpace=wrap;spacing=2;" parent="zWn4Wl6nGkiOWj4hIkpI-1" vertex="1">
                    <mxGeometry x="789" y="128" width="140" height="187" as="geometry"/>
                </mxCell>
                <mxCell id="7X2a1pH_mlBBPV4h_tW4-3" value="SSH프로토콜 한정해서&#10;ConnectInfo 확장해서 쓰는 정보 객체&#10;&#10;SAC_AUTH DB테이블&#10;&#10;클라이언트 세션,&#10;서버 세션 매핑되는 곳" style="text;strokeColor=#000000;fillColor=none;align=left;verticalAlign=top;spacingLeft=4;spacingRight=4;overflow=hidden;rotatable=0;points=[[0,0.5],[1,0.5]];portConstraint=eastwest;fontFamily=Helvetica;fontSize=11;fontColor=#000000;gradientColor=none;labelBackgroundColor=none;labelBorderColor=none;whiteSpace=wrap;fontStyle=0;spacing=2;" parent="7X2a1pH_mlBBPV4h_tW4-2" vertex="1">
                    <mxGeometry y="25" width="140" height="123" as="geometry"/>
                </mxCell>
                <mxCell id="snjfuIhtezAYLeXc8O_9-11" value="서버 세션&#10;클라이언트 세션" style="text;strokeColor=#000000;fillColor=none;align=left;verticalAlign=top;spacingLeft=4;spacingRight=4;overflow=hidden;rotatable=0;points=[[0,0.5],[1,0.5]];portConstraint=eastwest;fontFamily=Helvetica;fontSize=11;fontColor=#000000;gradientColor=none;labelBackgroundColor=none;labelBorderColor=none;whiteSpace=wrap;fontStyle=0;spacing=2;" parent="7X2a1pH_mlBBPV4h_tW4-2" vertex="1">
                    <mxGeometry y="148" width="140" height="39" as="geometry"/>
                </mxCell>
                <mxCell id="HfLbDZ5mI7VhBHE0PL91-0" value="SshInterCommand" style="swimlane;fontStyle=1;align=center;verticalAlign=middle;childLayout=stackLayout;horizontal=1;startSize=29;horizontalStack=0;resizeParent=1;resizeParentMax=0;resizeLast=0;collapsible=0;marginBottom=0;fontFamily=Helvetica;fontSize=11;fontColor=#000000;fillColor=none;gradientColor=none;strokeColor=#000000;labelBackgroundColor=none;labelBorderColor=none;whiteSpace=wrap;spacing=2;" parent="zWn4Wl6nGkiOWj4hIkpI-1" vertex="1">
                    <mxGeometry x="685" y="700" width="126" height="133" as="geometry"/>
                </mxCell>
                <mxCell id="HfLbDZ5mI7VhBHE0PL91-1" value="서버 접근 제어 분기점." style="text;strokeColor=#000000;fillColor=none;align=left;verticalAlign=top;spacingLeft=4;spacingRight=4;overflow=hidden;rotatable=0;points=[[0,0.5],[1,0.5]];portConstraint=eastwest;fontFamily=Helvetica;fontSize=11;fontColor=#000000;gradientColor=none;labelBackgroundColor=none;labelBorderColor=none;fontStyle=0;spacing=2;whiteSpace=wrap;" parent="HfLbDZ5mI7VhBHE0PL91-0" vertex="1">
                    <mxGeometry y="29" width="126" height="104" as="geometry"/>
                </mxCell>
                <mxCell id="Mp1FBrk2OlYJx9xuw5lp-4" value="중계" style="edgeStyle=orthogonalEdgeStyle;html=1;exitX=1;exitY=0.5;exitDx=0;exitDy=0;entryX=0;entryY=0.5;entryDx=0;entryDy=0;fontColor=#000000;startArrow=none;startFill=0;endSize=6;strokeColor=#000000;labelBackgroundColor=none;verticalAlign=middle;labelPosition=left;verticalLabelPosition=middle;align=right;strokeWidth=2;" parent="zWn4Wl6nGkiOWj4hIkpI-1" source="Mp1FBrk2OlYJx9xuw5lp-1" target="HfLbDZ5mI7VhBHE0PL91-0" edge="1">
                    <mxGeometry relative="1" as="geometry">
                        <Array as="points">
                            <mxPoint x="521" y="330"/>
                            <mxPoint x="521" y="767"/>
                        </Array>
                    </mxGeometry>
                </mxCell>
                <mxCell id="Mp1FBrk2OlYJx9xuw5lp-0" value="SSHD SSH Server" style="swimlane;fontStyle=1;align=center;verticalAlign=middle;childLayout=stackLayout;horizontal=1;startSize=29;horizontalStack=0;resizeParent=1;resizeParentMax=0;resizeLast=0;collapsible=0;marginBottom=0;fontFamily=Helvetica;fontSize=11;fontColor=#000000;fillColor=none;gradientColor=none;strokeColor=#000000;labelBackgroundColor=none;labelBorderColor=none;whiteSpace=wrap;spacing=2;" parent="zWn4Wl6nGkiOWj4hIkpI-1" vertex="1">
                    <mxGeometry x="351" y="260" width="140" height="110" as="geometry"/>
                </mxCell>
                <mxCell id="Mp1FBrk2OlYJx9xuw5lp-1" value="Auth 요청 시, InterCommand로 ServerSession을 전달한다." style="text;strokeColor=#000000;fillColor=none;align=left;verticalAlign=top;spacingLeft=4;spacingRight=4;overflow=hidden;rotatable=0;points=[[0,0.5],[1,0.5]];portConstraint=eastwest;fontFamily=Helvetica;fontSize=11;fontColor=#000000;gradientColor=none;labelBackgroundColor=none;labelBorderColor=none;whiteSpace=wrap;fontStyle=0;spacing=2;" parent="Mp1FBrk2OlYJx9xuw5lp-0" vertex="1">
                    <mxGeometry y="29" width="140" height="81" as="geometry"/>
                </mxCell>
                <mxCell id="Mp1FBrk2OlYJx9xuw5lp-2" value="SSHD SSH Client" style="swimlane;fontStyle=1;align=center;verticalAlign=middle;childLayout=stackLayout;horizontal=1;startSize=29;horizontalStack=0;resizeParent=1;resizeParentMax=0;resizeLast=0;collapsible=0;marginBottom=0;fontFamily=Helvetica;fontSize=11;fontColor=#000000;fillColor=none;gradientColor=none;strokeColor=#000000;labelBackgroundColor=none;labelBorderColor=none;whiteSpace=wrap;spacing=2;" parent="zWn4Wl6nGkiOWj4hIkpI-1" vertex="1">
                    <mxGeometry x="999" y="313" width="140" height="110" as="geometry"/>
                </mxCell>
                <mxCell id="Mp1FBrk2OlYJx9xuw5lp-3" value="생성 뒤 InterCommand로 세션을 전달" style="text;strokeColor=#000000;fillColor=none;align=left;verticalAlign=top;spacingLeft=4;spacingRight=4;overflow=hidden;rotatable=0;points=[[0,0.5],[1,0.5]];portConstraint=eastwest;fontFamily=Helvetica;fontSize=11;fontColor=#000000;gradientColor=none;labelBackgroundColor=none;labelBorderColor=none;whiteSpace=wrap;fontStyle=0;spacing=2;" parent="Mp1FBrk2OlYJx9xuw5lp-2" vertex="1">
                    <mxGeometry y="29" width="140" height="81" as="geometry"/>
                </mxCell>
                <mxCell id="Mp1FBrk2OlYJx9xuw5lp-9" value="중계" style="edgeStyle=orthogonalEdgeStyle;html=1;exitX=1;exitY=0.5;exitDx=0;exitDy=0;fontColor=#000000;startArrow=none;startFill=0;endSize=6;strokeColor=#000000;labelBackgroundColor=none;verticalAlign=top;labelPosition=right;verticalLabelPosition=bottom;align=left;entryX=0.992;entryY=0.385;entryDx=0;entryDy=0;entryPerimeter=0;strokeWidth=2;" parent="zWn4Wl6nGkiOWj4hIkpI-1" source="Mp1FBrk2OlYJx9xuw5lp-3" target="HfLbDZ5mI7VhBHE0PL91-1" edge="1">
                    <mxGeometry relative="1" as="geometry">
                        <mxPoint x="790" y="455" as="targetPoint"/>
                    </mxGeometry>
                </mxCell>
                <mxCell id="snjfuIhtezAYLeXc8O_9-12" value="create" style="edgeStyle=orthogonalEdgeStyle;html=1;exitX=1;exitY=0.5;exitDx=0;exitDy=0;entryX=0;entryY=0.5;entryDx=0;entryDy=0;fontColor=#000000;startArrow=none;startFill=0;endSize=6;strokeColor=#000000;labelBackgroundColor=none;verticalAlign=bottom;" parent="zWn4Wl6nGkiOWj4hIkpI-1" source="Mp1FBrk2OlYJx9xuw5lp-1" target="Mp1FBrk2OlYJx9xuw5lp-3" edge="1">
                    <mxGeometry relative="1" as="geometry">
                        <Array as="points">
                            <mxPoint x="622" y="330"/>
                            <mxPoint x="622" y="383"/>
                        </Array>
                    </mxGeometry>
                </mxCell>
                <mxCell id="aFpW07qmKx8GNFEeJL4b-0" value="create" style="edgeStyle=orthogonalEdgeStyle;html=1;exitX=1;exitY=0.5;exitDx=0;exitDy=0;entryX=0;entryY=0.5;entryDx=0;entryDy=0;fontColor=#000000;startArrow=none;startFill=0;endSize=6;strokeColor=#000000;labelBackgroundColor=none;verticalAlign=middle;labelPosition=left;verticalLabelPosition=middle;align=right;" parent="zWn4Wl6nGkiOWj4hIkpI-1" source="Mp1FBrk2OlYJx9xuw5lp-1" target="7X2a1pH_mlBBPV4h_tW4-0" edge="1">
                    <mxGeometry relative="1" as="geometry">
                        <Array as="points">
                            <mxPoint x="588" y="330"/>
                            <mxPoint x="588" y="208"/>
                        </Array>
                    </mxGeometry>
                </mxCell>
                <mxCell id="aFpW07qmKx8GNFEeJL4b-1" value="create" style="edgeStyle=orthogonalEdgeStyle;html=1;fontColor=#000000;startArrow=none;startFill=0;endSize=6;strokeColor=#000000;labelBackgroundColor=none;verticalAlign=bottom;labelPosition=center;verticalLabelPosition=top;align=center;" parent="zWn4Wl6nGkiOWj4hIkpI-1" source="Mp1FBrk2OlYJx9xuw5lp-1" target="HfLbDZ5mI7VhBHE0PL91-0" edge="1">
                    <mxGeometry relative="1" as="geometry">
                        <mxPoint x="561" y="395" as="sourcePoint"/>
                        <mxPoint x="626" y="215" as="targetPoint"/>
                        <Array as="points">
                            <mxPoint x="605" y="330"/>
                            <mxPoint x="605" y="494"/>
                            <mxPoint x="748" y="494"/>
                        </Array>
                    </mxGeometry>
                </mxCell>
            </root>
        </mxGraphModel>
    </diagram>
    <diagram name="vt100sim" id="vh5XfCqw_GFKdZKsEZm1">
        <mxGraphModel dx="1422" dy="850" grid="0" gridSize="7" guides="1" tooltips="1" connect="0" arrows="1" fold="1" page="1" pageScale="1" pageWidth="1654" pageHeight="1169" background="#FFFFFF" math="1" shadow="1">
            <root>
                <mxCell id="dNdpUefoseMkimW8_U6S-0"/>
                <mxCell id="dNdpUefoseMkimW8_U6S-1" parent="dNdpUefoseMkimW8_U6S-0"/>
            </root>
        </mxGraphModel>
    </diagram>
    <diagram name="SAC Command" id="EzbbHJml70Rp0X8iG2aW">
        <mxGraphModel dx="1422" dy="850" grid="0" gridSize="7" guides="1" tooltips="1" connect="0" arrows="1" fold="1" page="0" pageScale="1" pageWidth="1654" pageHeight="1169" background="#FFFFFF" math="1" shadow="1">
            <root>
                <mxCell id="V7Y15WnvLxom10lCSwcC-0"/>
                <mxCell id="V7Y15WnvLxom10lCSwcC-1" parent="V7Y15WnvLxom10lCSwcC-0"/>
                <mxCell id="1jeTHhUdexhR54x69EbI-8" value="SAC Command restrict(2022-09-19 기준) Flow Chart(순서도)" style="text;align=center;verticalAlign=middle;resizable=0;points=[];autosize=1;strokeColor=none;fillColor=none;fontColor=#000000;html=1;fontSize=20;" parent="V7Y15WnvLxom10lCSwcC-1" vertex="1">
                    <mxGeometry x="364" y="318" width="551" height="28" as="geometry"/>
                </mxCell>
                <mxCell id="Tz07jsN3shnL4epCAfXI-4" value="\n" style="edgeStyle=none;html=1;fontFamily=Helvetica;fontSize=20;fontColor=#000000;strokeColor=#000000;entryX=0.504;entryY=0.023;entryDx=0;entryDy=0;entryPerimeter=0;labelBackgroundColor=none;labelPosition=right;verticalLabelPosition=middle;align=left;verticalAlign=middle;" parent="V7Y15WnvLxom10lCSwcC-1" source="Ic-RbeoyGOrZ4tEKTS66-11" target="Ic-RbeoyGOrZ4tEKTS66-0" edge="1">
                    <mxGeometry relative="1" as="geometry">
                        <mxPoint x="491.5862779862284" y="457" as="sourcePoint"/>
                        <mxPoint x="491.5" y="522" as="targetPoint"/>
                    </mxGeometry>
                </mxCell>
                <mxCell id="Ic-RbeoyGOrZ4tEKTS66-3" value="Yes" style="edgeStyle=none;html=1;fontFamily=Helvetica;fontSize=10;fontColor=#000000;strokeColor=#000000;labelBackgroundColor=none;verticalAlign=top;labelPosition=center;verticalLabelPosition=bottom;align=center;fontStyle=1;exitX=0.948;exitY=0.477;exitDx=0;exitDy=0;exitPerimeter=0;entryX=-0.004;entryY=0.367;entryDx=0;entryDy=0;entryPerimeter=0;" parent="V7Y15WnvLxom10lCSwcC-1" source="Ic-RbeoyGOrZ4tEKTS66-0" target="Ic-RbeoyGOrZ4tEKTS66-10" edge="1">
                    <mxGeometry relative="1" as="geometry">
                        <mxPoint x="644.4737641977281" y="634" as="targetPoint"/>
                    </mxGeometry>
                </mxCell>
                <mxCell id="Ic-RbeoyGOrZ4tEKTS66-7" value="no" style="edgeStyle=none;html=1;labelBackgroundColor=none;fontFamily=Helvetica;fontSize=10;fontColor=#000000;strokeColor=#000000;labelPosition=right;verticalLabelPosition=middle;align=left;verticalAlign=middle;" parent="V7Y15WnvLxom10lCSwcC-1" source="Ic-RbeoyGOrZ4tEKTS66-0" target="Ic-RbeoyGOrZ4tEKTS66-9" edge="1">
                    <mxGeometry relative="1" as="geometry">
                        <mxPoint x="491.5" y="1010" as="targetPoint"/>
                    </mxGeometry>
                </mxCell>
                <mxCell id="Ic-RbeoyGOrZ4tEKTS66-0" value="Command_control_use?" style="strokeWidth=2;html=1;shape=mxgraph.flowchart.decision;whiteSpace=wrap;rounded=1;fontFamily=Helvetica;fontSize=20;fillColor=#eeeeee;strokeColor=#36393d;fontColor=#000000;" parent="V7Y15WnvLxom10lCSwcC-1" vertex="1">
                    <mxGeometry x="421.75" y="538" width="139.5" height="44" as="geometry"/>
                </mxCell>
                <mxCell id="Ic-RbeoyGOrZ4tEKTS66-2" value="&lt;font style=&quot;font-size: 8px&quot;&gt;사용자 설정(명령어 제어)&lt;/font&gt;" style="text;html=1;align=center;verticalAlign=middle;resizable=0;points=[];autosize=1;strokeColor=none;fillColor=none;fontSize=20;fontFamily=Helvetica;fontColor=#000000;" parent="V7Y15WnvLxom10lCSwcC-1" vertex="1">
                    <mxGeometry x="358" y="557" width="100" height="33" as="geometry"/>
                </mxCell>
                <mxCell id="Ic-RbeoyGOrZ4tEKTS66-9" value="&lt;span style=&quot;font-size: 20px&quot;&gt;Run command&lt;/span&gt;" style="strokeWidth=2;html=1;shape=mxgraph.flowchart.document2;whiteSpace=wrap;size=0.25;rounded=1;fontFamily=Helvetica;fontSize=10;fontColor=#333333;fillColor=#f5f5f5;strokeColor=#666666;" parent="V7Y15WnvLxom10lCSwcC-1" vertex="1">
                    <mxGeometry x="395.75" y="944" width="191.5" height="60" as="geometry"/>
                </mxCell>
                <mxCell id="Ic-RbeoyGOrZ4tEKTS66-14" style="edgeStyle=none;html=1;entryX=0.5;entryY=0.045;entryDx=0;entryDy=0;entryPerimeter=0;labelBackgroundColor=none;fontFamily=Helvetica;fontSize=15;fontColor=#000000;strokeColor=#000000;" parent="V7Y15WnvLxom10lCSwcC-1" source="Ic-RbeoyGOrZ4tEKTS66-10" target="Ic-RbeoyGOrZ4tEKTS66-13" edge="1">
                    <mxGeometry relative="1" as="geometry"/>
                </mxCell>
                <mxCell id="Ic-RbeoyGOrZ4tEKTS66-10" value="Check Command" style="rounded=1;whiteSpace=wrap;html=1;absoluteArcSize=1;arcSize=14;strokeWidth=2;fontFamily=Helvetica;fontSize=20;fillColor=#f5f5f5;strokeColor=#666666;fontColor=#333333;" parent="V7Y15WnvLxom10lCSwcC-1" vertex="1">
                    <mxGeometry x="660" y="535" width="135" height="66" as="geometry"/>
                </mxCell>
                <mxCell id="Ic-RbeoyGOrZ4tEKTS66-11" value="buffered command" style="verticalLabelPosition=middle;verticalAlign=middle;html=1;shape=mxgraph.flowchart.on-page_reference;rounded=1;fontFamily=Helvetica;fontSize=15;fontColor=#333333;strokeColor=#666666;strokeWidth=2;fillColor=#f5f5f5;labelPosition=center;align=center;fontStyle=1" parent="V7Y15WnvLxom10lCSwcC-1" vertex="1">
                    <mxGeometry x="461.5" y="388" width="60" height="60" as="geometry"/>
                </mxCell>
                <mxCell id="Ic-RbeoyGOrZ4tEKTS66-13" value="Use WhiteList?" style="strokeWidth=2;html=1;shape=mxgraph.flowchart.decision;whiteSpace=wrap;rounded=1;fontFamily=Helvetica;fontSize=20;fillColor=#eeeeee;strokeColor=#36393d;fontColor=#000000;" parent="V7Y15WnvLxom10lCSwcC-1" vertex="1">
                    <mxGeometry x="665.5" y="666" width="232" height="44" as="geometry"/>
                </mxCell>
                <mxCell id="Ic-RbeoyGOrZ4tEKTS66-15" value="no" style="edgeStyle=orthogonalEdgeStyle;html=1;labelBackgroundColor=none;fontFamily=Helvetica;fontSize=11;fontColor=#000000;strokeColor=#000000;labelPosition=right;verticalLabelPosition=middle;align=left;verticalAlign=middle;exitX=0.502;exitY=1.045;exitDx=0;exitDy=0;exitPerimeter=0;" parent="V7Y15WnvLxom10lCSwcC-1" source="Ic-RbeoyGOrZ4tEKTS66-13" edge="1">
                    <mxGeometry relative="1" as="geometry">
                        <mxPoint x="802" y="766" as="sourcePoint"/>
                        <mxPoint x="589" y="974" as="targetPoint"/>
                        <Array as="points">
                            <mxPoint x="782" y="974"/>
                        </Array>
                    </mxGeometry>
                </mxCell>
                <mxCell id="Ic-RbeoyGOrZ4tEKTS66-18" value="Yes" style="edgeStyle=none;html=1;fontFamily=Helvetica;fontSize=10;fontColor=#000000;strokeColor=#000000;labelBackgroundColor=none;verticalAlign=middle;labelPosition=center;verticalLabelPosition=bottom;align=center;fontStyle=1;exitX=0.994;exitY=0.5;exitDx=0;exitDy=0;exitPerimeter=0;" parent="V7Y15WnvLxom10lCSwcC-1" source="Ic-RbeoyGOrZ4tEKTS66-13" target="Ic-RbeoyGOrZ4tEKTS66-21" edge="1">
                    <mxGeometry relative="1" as="geometry">
                        <mxPoint x="1029" y="688" as="targetPoint"/>
                        <mxPoint x="927.9960000000001" y="690.998" as="sourcePoint"/>
                    </mxGeometry>
                </mxCell>
                <mxCell id="Ic-RbeoyGOrZ4tEKTS66-24" value="no" style="edgeStyle=orthogonalEdgeStyle;html=1;labelBackgroundColor=none;fontFamily=Helvetica;fontSize=15;fontColor=#000000;strokeColor=#000000;labelPosition=right;verticalLabelPosition=middle;align=left;verticalAlign=middle;" parent="V7Y15WnvLxom10lCSwcC-1" source="Ic-RbeoyGOrZ4tEKTS66-21" target="Ic-RbeoyGOrZ4tEKTS66-25" edge="1">
                    <mxGeometry relative="1" as="geometry">
                        <mxPoint x="1160" y="783" as="targetPoint"/>
                    </mxGeometry>
                </mxCell>
                <mxCell id="Ic-RbeoyGOrZ4tEKTS66-21" value="User allow command?" style="strokeWidth=2;html=1;shape=mxgraph.flowchart.decision;whiteSpace=wrap;rounded=1;fontFamily=Helvetica;fontSize=20;fillColor=#eeeeee;strokeColor=#36393d;fontColor=#000000;" parent="V7Y15WnvLxom10lCSwcC-1" vertex="1">
                    <mxGeometry x="1044" y="666" width="232" height="44" as="geometry"/>
                </mxCell>
                <mxCell id="Ic-RbeoyGOrZ4tEKTS66-22" value="Yes" style="edgeStyle=orthogonalEdgeStyle;html=1;fontFamily=Helvetica;fontSize=10;fontColor=#000000;strokeColor=#000000;labelBackgroundColor=none;verticalAlign=middle;labelPosition=right;verticalLabelPosition=middle;align=left;fontStyle=1;exitX=0.987;exitY=0.5;exitDx=0;exitDy=0;exitPerimeter=0;" parent="V7Y15WnvLxom10lCSwcC-1" source="Ic-RbeoyGOrZ4tEKTS66-21" target="Ic-RbeoyGOrZ4tEKTS66-9" edge="1">
                    <mxGeometry relative="1" as="geometry">
                        <mxPoint x="1469.8899999999999" y="749" as="targetPoint"/>
                        <mxPoint x="1321.998" y="749" as="sourcePoint"/>
                        <Array as="points">
                            <mxPoint x="1374" y="688"/>
                            <mxPoint x="1374" y="974"/>
                        </Array>
                    </mxGeometry>
                </mxCell>
                <mxCell id="Ic-RbeoyGOrZ4tEKTS66-26" value="Yes" style="edgeStyle=orthogonalEdgeStyle;html=1;labelBackgroundColor=none;fontFamily=Helvetica;fontSize=13;fontColor=#000000;strokeColor=#000000;labelPosition=right;verticalLabelPosition=middle;align=left;verticalAlign=middle;" parent="V7Y15WnvLxom10lCSwcC-1" source="Ic-RbeoyGOrZ4tEKTS66-25" target="Ic-RbeoyGOrZ4tEKTS66-27" edge="1">
                    <mxGeometry relative="1" as="geometry">
                        <mxPoint x="1160" y="887" as="targetPoint"/>
                    </mxGeometry>
                </mxCell>
                <mxCell id="Ic-RbeoyGOrZ4tEKTS66-30" value="no" style="edgeStyle=orthogonalEdgeStyle;html=1;labelBackgroundColor=none;fontFamily=Helvetica;fontSize=15;fontColor=#000000;strokeColor=#000000;" parent="V7Y15WnvLxom10lCSwcC-1" source="Ic-RbeoyGOrZ4tEKTS66-25" target="Ic-RbeoyGOrZ4tEKTS66-9" edge="1">
                    <mxGeometry relative="1" as="geometry">
                        <Array as="points">
                            <mxPoint x="1160" y="995"/>
                        </Array>
                    </mxGeometry>
                </mxCell>
                <mxCell id="Ic-RbeoyGOrZ4tEKTS66-25" value="User restricted command?" style="strokeWidth=2;html=1;shape=mxgraph.flowchart.decision;whiteSpace=wrap;rounded=1;fontFamily=Helvetica;fontSize=20;fillColor=#eeeeee;strokeColor=#36393d;fontColor=#000000;" parent="V7Y15WnvLxom10lCSwcC-1" vertex="1">
                    <mxGeometry x="1038" y="756" width="244" height="44" as="geometry"/>
                </mxCell>
                <mxCell id="Ic-RbeoyGOrZ4tEKTS66-27" value="&lt;span style=&quot;font-size: 20px&quot;&gt;Do not run.&lt;/span&gt;" style="strokeWidth=2;html=1;shape=mxgraph.flowchart.document2;whiteSpace=wrap;size=0.25;rounded=1;fontFamily=Helvetica;fontSize=10;fontColor=#333333;fillColor=#f5f5f5;strokeColor=#666666;" parent="V7Y15WnvLxom10lCSwcC-1" vertex="1">
                    <mxGeometry x="1495" y="748" width="191.5" height="60" as="geometry"/>
                </mxCell>
            </root>
        </mxGraphModel>
    </diagram>
</mxfile>